<?xml version="1.0" encoding="UTF-8"?>
<svg xmlns="http://www.w3.org/2000/svg" viewBox="0 0 1547.1 765.97">
  <defs>
    <style>
      .cls-1, .cls-2, .cls-3, .cls-4, .cls-5, .cls-6, .cls-7, .cls-8, .cls-9 {
        stroke: #000;
        stroke-width: 3px;
      }

      .cls-1, .cls-2, .cls-4, .cls-5, .cls-6, .cls-7, .cls-8, .cls-9 {
        stroke-miterlimit: 10;
      }

      .cls-1, .cls-3 {
        fill: #a5a5a5;
      }

      .cls-2 {
        fill: #424242;
      }

      .cls-3 {
        stroke-linejoin: bevel;
      }

      .cls-3, .cls-7 {
        stroke-linecap: round;
      }

      .cls-4 {
        fill: #ededed;
      }

      .cls-5 {
        fill: #bacac1;
      }

      .cls-6 {
        fill: #9ba39f;
      }

      .cls-7, .cls-9 {
        fill: none;
      }

      .cls-8 {
        fill: #b5981f;
      }
    </style>
  </defs>
  <g id="Layer_3" data-name="Layer 3">
    <g>
      <circle class="cls-2" cx="623.68" cy="549.44" r="76.28"/>
      <circle class="cls-1" cx="623.68" cy="549.44" r="60.35"/>
      <path class="cls-2" d="M632.74,569.94l8.08,14.28c1.31,2.32,4.53,2.63,6.26.59l13.72-16.14c2.47-2.91,1.02-7.4-2.68-8.31l-12.72-3.14"/>
      <path class="cls-2" d="M627.89,527.37l-.54-16.39c-.09-2.66-2.8-4.43-5.27-3.43l-19.64,7.95c-3.54,1.43-4.33,6.08-1.48,8.61l9.82,8.68"/>
      <path class="cls-2" d="M605.05,540.12l-15.52-5.32c-2.52-.86-5.13,1.04-5.08,3.71l.46,21.18c.08,3.81,4.15,6.21,7.52,4.44l11.6-6.09"/>
      <path class="cls-2" d="M646.52,546l16.07-3.27c2.61-.53,3.9-3.5,2.5-5.77l-11.12-18.03c-2-3.25-6.72-3.25-8.73-.01l-6.92,11.13"/>
      <path class="cls-2" d="M608.74,562.7l-12.38,10.76c-2.01,1.75-1.67,4.97.66,6.25l18.55,10.22c3.34,1.84,7.45-.47,7.61-4.29l.54-13.09"/>
      <circle class="cls-1" cx="625.57" cy="549.82" r="22.25"/>
    </g>
    <g>
      <circle class="cls-2" cx="1163.05" cy="549.44" r="76.28"/>
      <circle class="cls-1" cx="1163.05" cy="549.44" r="60.35"/>
      <path class="cls-2" d="M1172.11,569.94l8.08,14.28c1.31,2.32,4.53,2.63,6.26.59l13.72-16.14c2.47-2.91,1.02-7.4-2.68-8.31l-12.72-3.14"/>
      <path class="cls-2" d="M1167.26,527.37l-.54-16.39c-.09-2.66-2.8-4.43-5.27-3.43l-19.64,7.95c-3.54,1.43-4.33,6.08-1.48,8.61l9.82,8.68"/>
      <path class="cls-2" d="M1144.42,540.12l-15.52-5.32c-2.52-.86-5.13,1.04-5.08,3.71l.46,21.18c.08,3.81,4.15,6.21,7.52,4.44l11.6-6.09"/>
      <path class="cls-2" d="M1185.88,546l16.07-3.27c2.61-.53,3.9-3.5,2.5-5.77l-11.12-18.03c-2-3.25-6.72-3.25-8.73-.01l-6.92,11.13"/>
      <path class="cls-2" d="M1148.1,562.7l-12.38,10.76c-2.01,1.75-1.67,4.97.66,6.25l18.55,10.22c3.34,1.84,7.45-.47,7.61-4.29l.54-13.09"/>
      <circle class="cls-1" cx="1164.93" cy="549.82" r="22.25"/>
    </g>
  </g>
  <g id="Layer_5" data-name="Layer 5">
    <polygon class="cls-1" points="712.51 544.52 712.51 587.99 1005.28 587.99 1005.28 544.52 996.26 544.52 996.26 570.82 718.98 573.02 718.98 545.07 712.51 544.52"/>
    <path class="cls-1" d="M460.9,421.9c-3.24.4-8.82,1.59-13.58,5.75-11.52,10.07-11.96,32.06-1.02,43.57,4.91,5.17,11.01,7.06,14.54,7.83"/>
    <path class="cls-1" d="M1330.38,529.04v-36.88c0-.76-.07-1.53-.3-2.26-.97-3.06-3.59-5.25-6.5-5.48-4.03-.33-8.01,3.12-8.17,7.83v28.95c0,4.42-3.4,8.1-7.81,8.45l-22.15,1.73c-2.18.17-4.23,1.16-5.67,2.81-.05.06-.11.12-.16.19-8.73,10.22-1.05,25.99,12.39,25.75l14.32-.26c13.36-.24,24.06-11.14,24.06-24.5v-6.34Z"/>
    <path class="cls-1" d="M462.23,527.72s5.52,5.25,9.18,5.46l41.68,2.38c4.42.25,8.74,1.51,12.55,3.76,9.36,5.56,9.97,11.3,8.05,15.78-2.23,5.2-7.66,8.28-13.31,7.96l-51.36-2.9s-27.57-2.81-33.96-20.17,10.28-25.3,10.28-25.3l15.56-9.43,8.63,12.77-7.3,9.68Z"/>
  </g>
  <g id="Layer_2" data-name="Layer 2">
    <path class="cls-4" d="M718.71,244.91h277.28s290.55,0,290.55,0c6.43,13.39,13.07,29.81,18.38,49.02,6.51,23.52,9.22,44.67,10.21,61.79h-319.15l-470.82,11.49s-39.54,9.12-56.79,22.4c10.71-40.15,25.15-73.66,46.93-109.04l21.95-35.66h181.45s-192.25,0-192.25,0c-1.22,0-1.76-1.53-.81-2.29,5.86-4.73,21.04-15.58,42.68-20.94,37.11-9.19,165.95-14.48,325.53-13.79,139.88.61,284.87,9.58,331.54,12.71,14.28.96,28.34,4.24,41.44,10,8.9,3.91,17.24,8.85,19.7,14.31"/>
    <rect class="cls-6" x="872.17" y="255.57" width="112.34" height="83.74" rx="10.21" ry="10.21"/>
    <rect class="cls-6" x="732.26" y="255.57" width="112.34" height="83.74" rx="10.21" ry="10.21"/>
    <path class="cls-5" d="M1315.14,353.07l-2.23,132.77c-.23,13.7-5.93,26.03-15,34.95-6.43,6.33-13.34,9.47-15.48,10.38-8.17,3.49-15.46,4.03-19.72,4.02h-10.05c-3.93,0-7.16-3.11-7.31-7.04l-.59-16.24c-.14-3.71-1.17-7.37-3.21-10.48s-4.64-5.04-9.51-5.04h-125.91c-1.05,0-2.09.04-3.11.12-10.68.84-19.25,9.2-20.66,19.82h0c-2.12,15.92-15.34,28.25-31.39,28.73-.35.01-.68.02-1.01.02h-331.28c-8.62,0-16.36-5.25-19.55-13.26l-4.49-11.27c-9.82-24.65-33.68-40.83-60.22-40.83h-24.63c-25.29,0-48.13,15.12-58,38.41l-6.79,16.02c-5.83,13.75-19.31,22.68-34.25,22.68h-31.28c-10.29,0-18.64-8.34-18.64-18.64v-114.65c0-7.03.86-14.03,2.57-20.85h0c5.04-21.91,23.96-38.22,46.43-39.02.63-.02,1.26-.03,1.9-.03,25.53,0,206.98-10.55,206.98-10.55h596.43Z"/>
    <rect class="cls-6" x="1011.06" y="255.57" width="112.34" height="83.74" rx="10.21" ry="10.21"/>
    <path class="cls-6" d="M704.68,261.86v71.15c0,3.48-2.82,6.3-6.3,6.3h-185.35c-4.69,0-7.73-4.94-5.62-9.13l35.87-71.15c1.07-2.12,3.24-3.46,5.62-3.46h149.49c3.48,0,6.3,2.82,6.3,6.3Z"/>
    <line class="cls-9" x1="576.68" y1="255.57" x2="541.28" y2="339.31"/>
  </g>
  <g id="Layer_4" data-name="Layer 4">
    <line class="cls-7" x1="1191.49" y1="365.02" x2="1256.51" y2="365.02"/>
    <line class="cls-7" x1="1191.49" y1="372.85" x2="1256.51" y2="372.85"/>
    <line class="cls-7" x1="1191.49" y1="380.67" x2="1256.51" y2="380.67"/>
    <line class="cls-7" x1="1191.49" y1="388.5" x2="1256.51" y2="388.5"/>
    <line class="cls-7" x1="1191.49" y1="397.8" x2="1256.51" y2="397.8"/>
    <line class="cls-7" x1="1191.49" y1="405.63" x2="1256.51" y2="405.63"/>
    <line class="cls-7" x1="1191.49" y1="414.25" x2="1256.51" y2="414.25"/>
    <line class="cls-7" x1="1191.49" y1="422.08" x2="1256.51" y2="422.08"/>
    <line class="cls-7" x1="1191.49" y1="430.64" x2="1256.51" y2="430.64"/>
    <line class="cls-7" x1="1191.49" y1="438.47" x2="1256.51" y2="438.47"/>
    <rect class="cls-9" x="858.38" y="246.38" width="137.87" height="286.47"/>
    <rect class="cls-9" x="718.98" y="246.38" width="139.4" height="286.47"/>
  </g>
  <g id="Layer_6" data-name="Layer 6">
    <path class="cls-1" d="M498.38,305.87v33.96s-13.23,5.9-13.28-15.06c-.05-23.49,13.28-18.89,13.28-18.89Z"/>
    <polyline class="cls-9" points="485.11 324.76 475.15 324.76 474.13 365.36"/>
    <rect class="cls-4" x="474.33" y="349.27" width="10.57" height="14.55"/>
    <path class="cls-1" d="M466.21,391.4c3.94.18,7.8,11.02,6.38,20.43-.86,5.7-4.05,13.38-7.4,13.28-3.91-.12-7.99-10.8-6.64-20.17.87-6,4.28-13.69,7.66-13.53Z"/>
    <ellipse class="cls-8" cx="463.25" cy="409.32" rx="2.35" ry="7.61"/>
    <rect class="cls-1" x="662.04" y="393.95" width="40.08" height="7.76" rx="3.87" ry="3.87"/>
    <rect class="cls-1" x="867.32" y="392.35" width="40.08" height="7.76" rx="3.87" ry="3.87"/>
    <path class="cls-3" d="M460.84,534.22l52.25,1.34c4.42.25,8.74,1.51,12.55,3.76,9.36,5.56,9.97,11.3,8.05,15.78-2.23,5.2-7.66,8.28-13.31,7.96l-51.36-2.9s-27.57-2.81-33.96-20.17"/>
  </g>
</svg>